<svg width="46" height="64" viewBox="0 0 46 64" fill="none" xmlns="http://www.w3.org/2000/svg">
<g filter="url(#filter0_dddd_107_167)">
<path opacity="0.15" d="M23 20.625C27.1421 20.625 30.5 17.2671 30.5 13.125C30.5 8.98286 27.1421 5.625 23 5.625C18.8579 5.625 15.5 8.98286 15.5 13.125C15.5 17.2671 18.8579 20.625 23 20.625Z" fill="#11285E"/>
<path d="M38 39.375V35.625C38 31.4829 34.6421 28.125 30.5 28.125H15.5C11.3579 28.125 8 31.4829 8 35.625V39.375M38 13.125V19.6875M38 24.375V24.3938M30.5 13.125C30.5 17.2671 27.1421 20.625 23 20.625C18.8579 20.625 15.5 17.2671 15.5 13.125C15.5 8.98286 18.8579 5.625 23 5.625C27.1421 5.625 30.5 8.98286 30.5 13.125Z" stroke="#11285E" stroke-width="4" stroke-linecap="round" stroke-linejoin="round"/>
</g>
<defs>
<filter id="filter0_dddd_107_167" x="-5.5" y="-1" width="57" height="68" filterUnits="userSpaceOnUse" color-interpolation-filters="sRGB">
<feFlood flood-opacity="0" result="BackgroundImageFix"/>
<feColorMatrix in="SourceAlpha" type="matrix" values="0 0 0 0 0 0 0 0 0 0 0 0 0 0 0 0 0 0 127 0" result="hardAlpha"/>
<feOffset dy="1"/>
<feGaussianBlur stdDeviation="1"/>
<feColorMatrix type="matrix" values="0 0 0 0 0 0 0 0 0 0 0 0 0 0 0 0 0 0 0.2 0"/>
<feBlend mode="normal" in2="BackgroundImageFix" result="effect1_dropShadow_107_167"/>
<feColorMatrix in="SourceAlpha" type="matrix" values="0 0 0 0 0 0 0 0 0 0 0 0 0 0 0 0 0 0 127 0" result="hardAlpha"/>
<feOffset dy="4"/>
<feGaussianBlur stdDeviation="2"/>
<feColorMatrix type="matrix" values="0 0 0 0 0 0 0 0 0 0 0 0 0 0 0 0 0 0 0.17 0"/>
<feBlend mode="normal" in2="effect1_dropShadow_107_167" result="effect2_dropShadow_107_167"/>
<feColorMatrix in="SourceAlpha" type="matrix" values="0 0 0 0 0 0 0 0 0 0 0 0 0 0 0 0 0 0 127 0" result="hardAlpha"/>
<feOffset dy="9"/>
<feGaussianBlur stdDeviation="2.5"/>
<feColorMatrix type="matrix" values="0 0 0 0 0 0 0 0 0 0 0 0 0 0 0 0 0 0 0.1 0"/>
<feBlend mode="normal" in2="effect2_dropShadow_107_167" result="effect3_dropShadow_107_167"/>
<feColorMatrix in="SourceAlpha" type="matrix" values="0 0 0 0 0 0 0 0 0 0 0 0 0 0 0 0 0 0 127 0" result="hardAlpha"/>
<feOffset dy="16"/>
<feGaussianBlur stdDeviation="3"/>
<feColorMatrix type="matrix" values="0 0 0 0 0 0 0 0 0 0 0 0 0 0 0 0 0 0 0.03 0"/>
<feBlend mode="normal" in2="effect3_dropShadow_107_167" result="effect4_dropShadow_107_167"/>
<feBlend mode="normal" in="SourceGraphic" in2="effect4_dropShadow_107_167" result="shape"/>
</filter>
</defs>
</svg>
