<svg width="45" height="45" viewBox="0 0 45 45" fill="none" xmlns="http://www.w3.org/2000/svg">
<g clip-path="url(#clip0_103_152)">
<g filter="url(#filter0_d_103_152)">
<path d="M39.8145 9.91411L22.9395 4.28911C22.6531 4.20099 22.3469 4.20099 22.0606 4.28911L5.20315 9.91411H5.16799L4.99221 10.002H4.97463L4.79885 10.1075C4.79885 10.125 4.78127 10.125 4.76369 10.1426L4.62307 10.2657L4.50002 10.4063C4.50002 10.4239 4.48244 10.4239 4.48244 10.4415L4.37697 10.5997C4.37697 10.6172 4.37697 10.6172 4.3594 10.6348L4.28908 10.793L4.23635 10.9864V11.0391C4.21901 11.108 4.21307 11.1792 4.21877 11.25V25.3125C4.21877 25.6855 4.36693 26.0432 4.63065 26.3069C4.89437 26.5706 5.25206 26.7188 5.62502 26.7188C5.99798 26.7188 6.35567 26.5706 6.61939 26.3069C6.88311 26.0432 7.03127 25.6855 7.03127 25.3125V13.2012L12.9375 15.17C11.8279 16.9461 11.2429 18.9996 11.25 21.0938C11.2507 22.9984 11.7348 24.8717 12.6572 26.538C13.5795 28.2044 14.9098 29.6093 16.5235 30.6211C13.1703 31.8897 10.3076 34.1921 8.34963 37.1954C8.15006 37.5109 8.08245 37.8923 8.16136 38.2573C8.24027 38.6222 8.45938 38.9416 8.7715 39.1465C8.92467 39.248 9.09646 39.3181 9.27691 39.3527C9.45736 39.3873 9.64288 39.3858 9.82273 39.3482C10.0026 39.3106 10.1732 39.2377 10.3246 39.1336C10.4761 39.0296 10.6054 38.8966 10.7051 38.7422C11.9815 36.7761 13.7291 35.1603 15.7891 34.0416C17.849 32.923 20.1559 32.337 22.5 32.337C24.8441 32.337 27.151 32.923 29.211 34.0416C31.2709 35.1603 33.0185 36.7761 34.2949 38.7422C34.4233 38.9372 34.5982 39.0971 34.8038 39.2076C35.0094 39.318 35.2393 39.3756 35.4727 39.375C35.742 39.3779 36.0058 39.2981 36.2285 39.1465C36.5406 38.9416 36.7598 38.6222 36.8387 38.2573C36.9176 37.8923 36.85 37.5109 36.6504 37.1954C34.6924 34.1921 31.8298 31.8897 28.4766 30.6211C30.0902 29.6093 31.4205 28.2044 32.3428 26.538C33.2652 24.8717 33.7494 22.9984 33.75 21.0938C33.7571 18.9996 33.1721 16.9461 32.0625 15.17L39.8145 12.586C40.0958 12.4935 40.3408 12.3146 40.5144 12.0747C40.6881 11.8348 40.7816 11.5462 40.7816 11.25C40.7816 10.9539 40.6881 10.6653 40.5144 10.4254C40.3408 10.1855 40.0958 10.0066 39.8145 9.91411ZM22.5 29.5313C20.2623 29.5313 18.1161 28.6423 16.5338 27.06C14.9515 25.4777 14.0625 23.3316 14.0625 21.0938C14.0659 19.2933 14.6381 17.54 15.6973 16.084L22.0606 18.211C22.346 18.3049 22.654 18.3049 22.9395 18.211L29.3027 16.084C30.362 17.54 30.9341 19.2933 30.9375 21.0938C30.9375 23.3316 30.0486 25.4777 28.4662 27.06C26.8839 28.6423 24.7378 29.5313 22.5 29.5313Z" fill="#11285E"/>
</g>
</g>
<defs>
<filter id="filter0_d_103_152" x="-0.120886" y="4.22302" width="45.2401" height="43.8297" filterUnits="userSpaceOnUse" color-interpolation-filters="sRGB">
<feFlood flood-opacity="0" result="BackgroundImageFix"/>
<feColorMatrix in="SourceAlpha" type="matrix" values="0 0 0 0 0 0 0 0 0 0 0 0 0 0 0 0 0 0 127 0" result="hardAlpha"/>
<feOffset dy="4.33756"/>
<feGaussianBlur stdDeviation="2.16878"/>
<feComposite in2="hardAlpha" operator="out"/>
<feColorMatrix type="matrix" values="0 0 0 0 0 0 0 0 0 0 0 0 0 0 0 0 0 0 0.25 0"/>
<feBlend mode="normal" in2="BackgroundImageFix" result="effect1_dropShadow_103_152"/>
<feBlend mode="normal" in="SourceGraphic" in2="effect1_dropShadow_103_152" result="shape"/>
</filter>
<clipPath id="clip0_103_152">
<rect width="45" height="45" fill="white"/>
</clipPath>
</defs>
</svg>
