<svg width="56" height="75" viewBox="0 0 56 75" fill="none" xmlns="http://www.w3.org/2000/svg">
<g filter="url(#filter0_ddddd_107_165)">
<path d="M43.8613 9.1582H24.7715V9C24.7891 8.91211 24.7891 8.80664 24.7891 8.71875V6.71484C24.7891 5.34375 23.6641 4.21875 22.293 4.21875H20.5H11.2715H9.49609C8.125 4.21875 7 5.34375 7 6.71484V8.49023V8.70117V13.1836V36.1582C7 38.8828 9.21484 41.0801 11.9395 41.0977H43.8613C46.5859 41.0977 48.8008 38.8828 48.8008 36.1582V14.0977C48.8008 11.373 46.5859 9.1582 43.8613 9.1582ZM43.8613 37.8105H11.9395C11.0254 37.793 10.3047 37.0723 10.2871 36.1582V14.1152C10.3047 13.2012 11.0254 12.4805 11.9395 12.4629H43.8613C44.7754 12.4805 45.4961 13.2012 45.5137 14.1152V36.1582C45.4961 37.0723 44.7754 37.793 43.8613 37.8105ZM35.3184 19.0371C35.3184 17.0684 36.918 15.4512 38.9043 15.4512C40.8906 15.4512 42.4902 17.0508 42.4902 19.0371C42.4902 21.0059 40.8906 22.623 38.9043 22.623H38.8867C36.9004 22.623 35.3184 21.0059 35.3184 19.0371ZM33.3145 26.3496L42.9297 35.5781H12.5195L21.4844 17.3496L27.4258 30.5859L33.3145 26.3496Z" fill="#11285E"/>
</g>
<defs>
<filter id="filter0_ddddd_107_165" x="-1.59961" y="-1" width="59" height="79" filterUnits="userSpaceOnUse" color-interpolation-filters="sRGB">
<feFlood flood-opacity="0" result="BackgroundImageFix"/>
<feColorMatrix in="SourceAlpha" type="matrix" values="0 0 0 0 0 0 0 0 0 0 0 0 0 0 0 0 0 0 127 0" result="hardAlpha"/>
<feOffset dy="1"/>
<feGaussianBlur stdDeviation="1"/>
<feColorMatrix type="matrix" values="0 0 0 0 0 0 0 0 0 0 0 0 0 0 0 0 0 0 0.49 0"/>
<feBlend mode="normal" in2="BackgroundImageFix" result="effect1_dropShadow_107_165"/>
<feColorMatrix in="SourceAlpha" type="matrix" values="0 0 0 0 0 0 0 0 0 0 0 0 0 0 0 0 0 0 127 0" result="hardAlpha"/>
<feOffset dy="4"/>
<feGaussianBlur stdDeviation="2"/>
<feColorMatrix type="matrix" values="0 0 0 0 0 0 0 0 0 0 0 0 0 0 0 0 0 0 0.43 0"/>
<feBlend mode="normal" in2="effect1_dropShadow_107_165" result="effect2_dropShadow_107_165"/>
<feColorMatrix in="SourceAlpha" type="matrix" values="0 0 0 0 0 0 0 0 0 0 0 0 0 0 0 0 0 0 127 0" result="hardAlpha"/>
<feOffset dy="9"/>
<feGaussianBlur stdDeviation="3"/>
<feColorMatrix type="matrix" values="0 0 0 0 0 0 0 0 0 0 0 0 0 0 0 0 0 0 0.25 0"/>
<feBlend mode="normal" in2="effect2_dropShadow_107_165" result="effect3_dropShadow_107_165"/>
<feColorMatrix in="SourceAlpha" type="matrix" values="0 0 0 0 0 0 0 0 0 0 0 0 0 0 0 0 0 0 127 0" result="hardAlpha"/>
<feOffset dy="17"/>
<feGaussianBlur stdDeviation="3.5"/>
<feColorMatrix type="matrix" values="0 0 0 0 0 0 0 0 0 0 0 0 0 0 0 0 0 0 0.07 0"/>
<feBlend mode="normal" in2="effect3_dropShadow_107_165" result="effect4_dropShadow_107_165"/>
<feColorMatrix in="SourceAlpha" type="matrix" values="0 0 0 0 0 0 0 0 0 0 0 0 0 0 0 0 0 0 127 0" result="hardAlpha"/>
<feOffset dy="26"/>
<feGaussianBlur stdDeviation="3.5"/>
<feColorMatrix type="matrix" values="0 0 0 0 0 0 0 0 0 0 0 0 0 0 0 0 0 0 0.01 0"/>
<feBlend mode="normal" in2="effect4_dropShadow_107_165" result="effect5_dropShadow_107_165"/>
<feBlend mode="normal" in="SourceGraphic" in2="effect5_dropShadow_107_165" result="shape"/>
</filter>
</defs>
</svg>
