<svg width="53" height="64" viewBox="0 0 53 64" fill="none" xmlns="http://www.w3.org/2000/svg">
<g filter="url(#filter0_dddd_107_132)">
<path d="M11.625 34.4531V42.8906H7.40625V34.4531" fill="#11285E"/>
<path d="M45.375 34.4531V42.8906H41.1562V34.4531" fill="#11285E"/>
<path d="M46.7812 2.10938H6V34.4531H46.7812V2.10938Z" fill="#11285E"/>
<path d="M26.3906 31.6406H24.2812L22.875 30.2344H10.9219V9.14062H13.7344V26.0156C13.7344 26.0156 22.2773 23.9062 26.3906 31.6406Z" fill="#11285E"/>
<path d="M39.0469 26.0156V9.14062H41.8594V30.2344H29.9062L28.5 31.6406H26.3906C30.5039 23.9062 39.0469 26.0156 39.0469 26.0156Z" fill="#11285E"/>
<path d="M26.3906 31.6406C22.2773 23.9062 13.7344 26.0156 13.7344 26.0156V7.03125L17.9531 5.625V23.2031C22.6148 23.2031 26.3906 26.9789 26.3906 31.6406Z" fill="#6096BA"/>
<path d="M34.8281 5.625L39.0469 7.03125V26.0156C39.0469 26.0156 30.5039 23.9062 26.3906 31.6406C26.3906 26.9789 30.1664 23.2031 34.8281 23.2031V5.625Z" fill="#6096BA"/>
<path d="M26.3906 13.3594C26.3906 8.69766 22.6148 4.92188 17.9531 4.92188V23.2031C22.6148 23.2031 26.3906 26.9789 26.3906 31.6406C26.3906 26.9789 30.1664 23.2031 34.8281 23.2031V4.92188C30.1664 4.92188 26.3906 8.69766 26.3906 13.3594Z" fill="#A3CEF1"/>
</g>
<defs>
<filter id="filter0_dddd_107_132" x="-2.10938" y="-1" width="57" height="67" filterUnits="userSpaceOnUse" color-interpolation-filters="sRGB">
<feFlood flood-opacity="0" result="BackgroundImageFix"/>
<feColorMatrix in="SourceAlpha" type="matrix" values="0 0 0 0 0 0 0 0 0 0 0 0 0 0 0 0 0 0 127 0" result="hardAlpha"/>
<feOffset dy="1"/>
<feGaussianBlur stdDeviation="1"/>
<feColorMatrix type="matrix" values="0 0 0 0 0 0 0 0 0 0 0 0 0 0 0 0 0 0 0.26 0"/>
<feBlend mode="normal" in2="BackgroundImageFix" result="effect1_dropShadow_107_132"/>
<feColorMatrix in="SourceAlpha" type="matrix" values="0 0 0 0 0 0 0 0 0 0 0 0 0 0 0 0 0 0 127 0" result="hardAlpha"/>
<feOffset dy="4"/>
<feGaussianBlur stdDeviation="2"/>
<feColorMatrix type="matrix" values="0 0 0 0 0 0 0 0 0 0 0 0 0 0 0 0 0 0 0.23 0"/>
<feBlend mode="normal" in2="effect1_dropShadow_107_132" result="effect2_dropShadow_107_132"/>
<feColorMatrix in="SourceAlpha" type="matrix" values="0 0 0 0 0 0 0 0 0 0 0 0 0 0 0 0 0 0 127 0" result="hardAlpha"/>
<feOffset dy="9"/>
<feGaussianBlur stdDeviation="2.5"/>
<feColorMatrix type="matrix" values="0 0 0 0 0 0 0 0 0 0 0 0 0 0 0 0 0 0 0.13 0"/>
<feBlend mode="normal" in2="effect2_dropShadow_107_132" result="effect3_dropShadow_107_132"/>
<feColorMatrix in="SourceAlpha" type="matrix" values="0 0 0 0 0 0 0 0 0 0 0 0 0 0 0 0 0 0 127 0" result="hardAlpha"/>
<feOffset dy="15"/>
<feGaussianBlur stdDeviation="3"/>
<feColorMatrix type="matrix" values="0 0 0 0 0 0 0 0 0 0 0 0 0 0 0 0 0 0 0.04 0"/>
<feBlend mode="normal" in2="effect3_dropShadow_107_132" result="effect4_dropShadow_107_132"/>
<feBlend mode="normal" in="SourceGraphic" in2="effect4_dropShadow_107_132" result="shape"/>
</filter>
</defs>
</svg>
