<svg width="59" height="68" viewBox="0 0 59 68" fill="none" xmlns="http://www.w3.org/2000/svg">
<g filter="url(#filter0_dddd_107_142)">
<g clip-path="url(#clip0_107_142)">
<path d="M33.5602 1.04004H8.14689C7.51346 1.04004 7 1.5535 7 2.18693V21.021C7 21.6544 7.51346 22.1678 8.14689 22.1678H33.0937L30.0745 20.2932C29.877 20.1705 29.6982 20.0294 29.5376 19.8742H9.29369V3.33373H32.4133V14.4698C32.7657 14.5442 33.1114 14.6798 33.435 14.8808L34.707 15.6706V2.18693C34.707 1.5535 34.1936 1.04004 33.5602 1.04004Z" fill="#11285E"/>
<path d="M26.0597 11.807C25.6772 11.5056 25.1223 11.571 24.8207 11.9536C24.519 12.3362 24.5846 12.891 24.9673 13.1926L28.859 16.2613C28.9144 16.1408 28.9768 16.0223 29.0485 15.9067C29.3019 15.4986 29.6329 15.1683 30.01 14.9218L26.0597 11.807Z" fill="#11285E"/>
<path d="M43.8887 10.4557C45.7117 10.4557 47.1896 8.97784 47.1896 7.1548C47.1896 5.33175 45.7117 3.85388 43.8887 3.85388C42.0656 3.85388 40.5878 5.33175 40.5878 7.1548C40.5878 8.97784 42.0656 10.4557 43.8887 10.4557Z" fill="#11285E"/>
<path d="M51.9412 15.2586C51.9309 13.1907 50.2401 11.5083 48.1721 11.5083H46.5738C45.0066 15.5725 45.578 14.0906 44.5956 16.6385L45.0095 14.5534C45.0399 14.4001 45.0154 14.2409 44.94 14.104L44.2913 12.9241L44.8671 11.877C44.907 11.8044 44.9056 11.7163 44.8635 11.645C44.8214 11.5737 44.7447 11.53 44.662 11.53H43.0834C43.0006 11.53 42.9241 11.5737 42.8819 11.645C42.8397 11.7163 42.8384 11.8045 42.8783 11.877L43.4528 12.9219L42.8054 14.0997C42.7286 14.2393 42.7045 14.4018 42.7377 14.5577L43.2156 16.6385C42.9415 15.9277 41.3629 12.0042 41.1717 11.5083H39.6046C37.5367 11.5083 35.8459 13.1906 35.8355 15.2586C35.8269 16.9782 35.8341 15.538 35.8206 18.2367L32.5948 16.2339C31.8477 15.7699 30.8657 15.9995 30.4017 16.7469C29.9377 17.4942 30.1674 18.4761 30.9146 18.9401L36.5589 22.4446C37.616 23.1011 38.9854 22.342 38.9917 21.0995C38.9948 20.4762 39.0173 16.0186 39.021 15.2745C39.0222 15.0906 39.1717 14.9426 39.3555 14.9432C39.5391 14.9439 39.6876 15.0929 39.6876 15.2767C39.686 22.9516 39.653 25.0972 39.653 42.0488C39.653 43.1043 40.5087 43.96 41.5642 43.96C42.6198 43.96 43.4755 43.1043 43.4755 42.0488V26.7719H44.3006V42.0488C44.3006 43.1043 45.1563 43.96 46.2119 43.96C47.2675 43.96 48.1232 43.1043 48.1232 42.0488L48.1239 15.2762C48.1239 15.1021 48.2649 14.9607 48.4391 14.9602C48.6132 14.9597 48.755 15.1003 48.7559 15.2746L48.8147 26.9757C48.8191 27.8526 49.5314 28.5603 50.4072 28.5603C50.4099 28.5603 50.4127 28.5603 50.4155 28.5603C51.295 28.556 52.0046 27.8392 52.0001 26.9597L51.9412 15.2586Z" fill="#11285E"/>
</g>
</g>
<defs>
<filter id="filter0_dddd_107_142" x="0" y="-1" width="59" height="70" filterUnits="userSpaceOnUse" color-interpolation-filters="sRGB">
<feFlood flood-opacity="0" result="BackgroundImageFix"/>
<feColorMatrix in="SourceAlpha" type="matrix" values="0 0 0 0 0 0 0 0 0 0 0 0 0 0 0 0 0 0 127 0" result="hardAlpha"/>
<feOffset dy="1"/>
<feGaussianBlur stdDeviation="1"/>
<feColorMatrix type="matrix" values="0 0 0 0 0 0 0 0 0 0 0 0 0 0 0 0 0 0 0.26 0"/>
<feBlend mode="normal" in2="BackgroundImageFix" result="effect1_dropShadow_107_142"/>
<feColorMatrix in="SourceAlpha" type="matrix" values="0 0 0 0 0 0 0 0 0 0 0 0 0 0 0 0 0 0 127 0" result="hardAlpha"/>
<feOffset dy="4"/>
<feGaussianBlur stdDeviation="2"/>
<feColorMatrix type="matrix" values="0 0 0 0 0 0 0 0 0 0 0 0 0 0 0 0 0 0 0.23 0"/>
<feBlend mode="normal" in2="effect1_dropShadow_107_142" result="effect2_dropShadow_107_142"/>
<feColorMatrix in="SourceAlpha" type="matrix" values="0 0 0 0 0 0 0 0 0 0 0 0 0 0 0 0 0 0 127 0" result="hardAlpha"/>
<feOffset dy="10"/>
<feGaussianBlur stdDeviation="3"/>
<feColorMatrix type="matrix" values="0 0 0 0 0 0 0 0 0 0 0 0 0 0 0 0 0 0 0.13 0"/>
<feBlend mode="normal" in2="effect2_dropShadow_107_142" result="effect3_dropShadow_107_142"/>
<feColorMatrix in="SourceAlpha" type="matrix" values="0 0 0 0 0 0 0 0 0 0 0 0 0 0 0 0 0 0 127 0" result="hardAlpha"/>
<feOffset dy="17"/>
<feGaussianBlur stdDeviation="3.5"/>
<feColorMatrix type="matrix" values="0 0 0 0 0 0 0 0 0 0 0 0 0 0 0 0 0 0 0.04 0"/>
<feBlend mode="normal" in2="effect3_dropShadow_107_142" result="effect4_dropShadow_107_142"/>
<feBlend mode="normal" in="SourceGraphic" in2="effect4_dropShadow_107_142" result="shape"/>
</filter>
<clipPath id="clip0_107_142">
<rect width="45" height="45" fill="white" transform="translate(7)"/>
</clipPath>
</defs>
</svg>
